<svg xmlns="http://www.w3.org/2000/svg" xmlns:xlink="http://www.w3.org/1999/xlink" width="500" zoomAndPan="magnify" viewBox="0 0 375 374.999991" height="500" preserveAspectRatio="xMidYMid meet" version="1.0"><defs><g/></defs><g fill="#ffffff" fill-opacity="1"><g transform="translate(13.62891, 207.374986)"><g><path d="M 4.796875 0 L 4.796875 -56.40625 L 25.28125 -56.40625 C 34.820312 -56.40625 42.140625 -53.960938 47.234375 -49.078125 C 52.328125 -44.203125 54.875 -37.226562 54.875 -28.15625 C 54.875 -19.144531 52.328125 -12.195312 47.234375 -7.3125 C 42.140625 -2.4375 34.820312 0 25.28125 0 Z M 11.4375 -5.921875 L 25.28125 -5.921875 C 32.632812 -5.921875 38.296875 -7.835938 42.265625 -11.671875 C 46.242188 -15.515625 48.234375 -21.007812 48.234375 -28.15625 C 48.234375 -35.351562 46.242188 -40.875 42.265625 -44.71875 C 38.296875 -48.5625 32.632812 -50.484375 25.28125 -50.484375 L 11.4375 -50.484375 Z M 11.4375 -5.921875 "/></g></g></g><g fill="#ffffff" fill-opacity="1"><g transform="translate(71.303306, 207.374986)"><g><path d="M 21.515625 -42.078125 C 24.984375 -42.078125 27.820312 -40.984375 30.03125 -38.796875 C 32.25 -36.609375 33.546875 -33.488281 33.921875 -29.4375 L 28.640625 -27.6875 C 28.316406 -30.507812 27.445312 -32.664062 26.03125 -34.15625 C 24.625 -35.65625 22.828125 -36.40625 20.640625 -36.40625 C 17.390625 -36.40625 14.816406 -35.148438 12.921875 -32.640625 C 11.023438 -30.128906 10.078125 -26.660156 10.078125 -22.234375 L 10.078125 0 L 4 0 L 4 -40.40625 L 9.203125 -40.40625 L 9.765625 -34.078125 L 9.84375 -34.078125 C 10.957031 -36.535156 12.539062 -38.484375 14.59375 -39.921875 C 16.65625 -41.359375 18.960938 -42.078125 21.515625 -42.078125 Z M 21.515625 -42.078125 "/></g></g></g><g fill="#ffffff" fill-opacity="1"><g transform="translate(106.019906, 207.374986)"><g><path d="M 24.71875 1.59375 C 20.445312 1.59375 16.617188 0.632812 13.234375 -1.28125 C 9.847656 -3.195312 7.195312 -5.832031 5.28125 -9.1875 C 3.363281 -12.550781 2.40625 -16.367188 2.40625 -20.640625 C 2.40625 -24.796875 3.285156 -28.472656 5.046875 -31.671875 C 6.804688 -34.878906 9.242188 -37.398438 12.359375 -39.234375 C 15.484375 -41.078125 19.046875 -42 23.046875 -42 C 26.984375 -42 30.421875 -41.078125 33.359375 -39.234375 C 36.296875 -37.398438 38.585938 -34.867188 40.234375 -31.640625 C 41.890625 -28.410156 42.742188 -24.71875 42.796875 -20.5625 C 42.796875 -20.1875 42.796875 -19.796875 42.796875 -19.390625 C 42.796875 -18.992188 42.769531 -18.582031 42.71875 -18.15625 L 8.71875 -18.15625 C 9.039062 -15.382812 9.921875 -12.914062 11.359375 -10.75 C 12.796875 -8.59375 14.675781 -6.914062 17 -5.71875 C 19.320312 -4.519531 21.921875 -3.921875 24.796875 -3.921875 C 27.941406 -3.921875 30.769531 -4.648438 33.28125 -6.109375 C 35.789062 -7.578125 37.601562 -9.40625 38.71875 -11.59375 L 44 -9.4375 C 43.144531 -7.300781 41.769531 -5.394531 39.875 -3.71875 C 37.988281 -2.039062 35.75 -0.738281 33.15625 0.1875 C 30.570312 1.125 27.757812 1.59375 24.71875 1.59375 Z M 8.796875 -23.515625 L 36.3125 -23.515625 C 35.945312 -27.628906 34.550781 -30.804688 32.125 -33.046875 C 29.695312 -35.285156 26.640625 -36.40625 22.953125 -36.40625 C 19.222656 -36.40625 16.078125 -35.21875 13.515625 -32.84375 C 10.960938 -30.46875 9.390625 -27.359375 8.796875 -23.515625 Z M 8.796875 -23.515625 "/></g></g></g><g fill="#ffffff" fill-opacity="1"><g transform="translate(151.935441, 207.374986)"><g><path d="M 17.203125 1.59375 C 14.160156 1.59375 11.460938 1.085938 9.109375 0.078125 C 6.765625 -0.929688 4.925781 -2.351562 3.59375 -4.1875 C 2.257812 -6.03125 1.59375 -8.15625 1.59375 -10.5625 C 1.59375 -13.8125 2.992188 -16.632812 5.796875 -19.03125 C 8.597656 -21.4375 13.28125 -23.039062 19.84375 -23.84375 L 29.84375 -25.046875 C 30.851562 -25.148438 31.648438 -25.476562 32.234375 -26.03125 C 32.828125 -26.59375 33.125 -27.300781 33.125 -28.15625 C 33.125 -30.664062 32.03125 -32.679688 29.84375 -34.203125 C 27.65625 -35.722656 24.800781 -36.484375 21.28125 -36.484375 C 18.769531 -36.484375 16.523438 -36.015625 14.546875 -35.078125 C 12.578125 -34.148438 11.019531 -32.9375 9.875 -31.4375 C 8.726562 -29.945312 8.101562 -28.398438 8 -26.796875 L 2.484375 -29.125 C 2.742188 -31.363281 3.710938 -33.453125 5.390625 -35.390625 C 7.078125 -37.335938 9.316406 -38.925781 12.109375 -40.15625 C 14.910156 -41.382812 18.046875 -42 21.515625 -42 C 24.984375 -42 28.035156 -41.398438 30.671875 -40.203125 C 33.316406 -39.003906 35.382812 -37.296875 36.875 -35.078125 C 38.375 -32.867188 39.125 -30.242188 39.125 -27.203125 L 39.125 -6.71875 C 39.125 -5.914062 39.320312 -5.257812 39.71875 -4.75 C 40.113281 -4.25 40.632812 -4 41.28125 -4 C 42.507812 -4 43.601562 -4.800781 44.5625 -6.40625 L 47.84375 -2.5625 C 46.988281 -1.332031 45.800781 -0.332031 44.28125 0.4375 C 42.757812 1.207031 41.226562 1.59375 39.6875 1.59375 C 37.707031 1.59375 36.128906 0.96875 34.953125 -0.28125 C 33.785156 -1.53125 33.148438 -3.0625 33.046875 -4.875 L 32.953125 -6.71875 L 32.875 -6.71875 C 31.4375 -4.15625 29.367188 -2.128906 26.671875 -0.640625 C 23.984375 0.847656 20.828125 1.59375 17.203125 1.59375 Z M 18.234375 -3.921875 C 21.066406 -3.921875 23.585938 -4.492188 25.796875 -5.640625 C 28.015625 -6.785156 29.757812 -8.359375 31.03125 -10.359375 C 32.3125 -12.359375 32.953125 -14.664062 32.953125 -17.28125 L 32.953125 -20.15625 L 20.484375 -18.640625 C 15.628906 -18.054688 12.28125 -17.039062 10.4375 -15.59375 C 8.601562 -14.15625 7.6875 -12.503906 7.6875 -10.640625 C 7.6875 -8.609375 8.671875 -6.976562 10.640625 -5.75 C 12.609375 -4.53125 15.140625 -3.921875 18.234375 -3.921875 Z M 18.234375 -3.921875 "/></g></g></g><g fill="#ffffff" fill-opacity="1"><g transform="translate(199.770792, 207.374986)"><g><path d="M 4 0 L 4 -40.40625 L 9.28125 -40.40625 L 9.921875 -34.484375 L 10 -34.484375 C 11.226562 -36.828125 13.082031 -38.664062 15.5625 -40 C 18.039062 -41.332031 20.90625 -42 24.15625 -42 C 27.351562 -42 30.03125 -41.289062 32.1875 -39.875 C 34.351562 -38.46875 35.941406 -36.457031 36.953125 -33.84375 L 37.046875 -33.84375 C 38.859375 -36.664062 41.097656 -38.726562 43.765625 -40.03125 C 46.429688 -41.34375 49.253906 -42 52.234375 -42 C 56.660156 -42 60.097656 -40.664062 62.546875 -38 C 65.003906 -35.332031 66.234375 -31.625 66.234375 -26.875 L 66.234375 0 L 60.078125 0 L 60.078125 -26.484375 C 60.078125 -29.628906 59.222656 -32.066406 57.515625 -33.796875 C 55.804688 -35.535156 53.4375 -36.40625 50.40625 -36.40625 C 46.5625 -36.40625 43.554688 -35.109375 41.390625 -32.515625 C 39.234375 -29.929688 38.15625 -26.585938 38.15625 -22.484375 L 38.15625 0 L 32.078125 0 L 32.078125 -26.484375 C 32.078125 -29.628906 31.222656 -32.066406 29.515625 -33.796875 C 27.804688 -35.535156 25.40625 -36.40625 22.3125 -36.40625 C 18.476562 -36.40625 15.476562 -35.109375 13.3125 -32.515625 C 11.15625 -29.929688 10.078125 -26.585938 10.078125 -22.484375 L 10.078125 0 Z M 4 0 "/></g></g></g><g fill="#ffffff" fill-opacity="1"><g transform="translate(269.60402, 207.374986)"><g/></g></g><g fill="#ffffff" fill-opacity="1"><g transform="translate(291.361893, 207.374986)"><g><path d="M 26.875 2 C 22.34375 2 18.359375 1.023438 14.921875 -0.921875 C 11.484375 -2.867188 8.800781 -5.585938 6.875 -9.078125 C 4.957031 -12.566406 4 -16.582031 4 -21.125 L 4 -56.40625 L 10.640625 -56.40625 L 10.640625 -21.125 C 10.640625 -17.976562 11.304688 -15.097656 12.640625 -12.484375 C 13.972656 -9.867188 15.851562 -7.785156 18.28125 -6.234375 C 20.707031 -4.691406 23.570312 -3.921875 26.875 -3.921875 C 30.1875 -3.921875 33.039062 -4.648438 35.4375 -6.109375 C 37.84375 -7.578125 39.710938 -9.601562 41.046875 -12.1875 C 42.378906 -14.78125 43.046875 -17.757812 43.046875 -21.125 L 43.046875 -56.40625 L 49.765625 -56.40625 L 49.765625 -21.125 C 49.765625 -16.582031 48.789062 -12.566406 46.84375 -9.078125 C 44.894531 -5.585938 42.210938 -2.867188 38.796875 -0.921875 C 35.390625 1.023438 31.414062 2 26.875 2 Z M 26.875 2 "/></g></g></g><g fill="#ffffff" fill-opacity="1"><g transform="translate(345.116665, 207.374986)"><g><path d="M 4.796875 0 L 4.796875 -56.40625 L 11.4375 -56.40625 L 11.4375 0 Z M 4.796875 0 "/></g></g></g></svg>