<svg xmlns="http://www.w3.org/2000/svg" xmlns:xlink="http://www.w3.org/1999/xlink" width="500" zoomAndPan="magnify" viewBox="0 0 375 374.999991" height="500" preserveAspectRatio="xMidYMid meet" version="1.0"><defs><clipPath id="f6a0db5edf"><path d="M 22.089844 26.433594 L 352.839844 26.433594 L 352.839844 348.933594 L 22.089844 348.933594 Z M 22.089844 26.433594 " clip-rule="nonzero"/></clipPath><clipPath id="11216d6941"><path d="M 87.128906 53.355469 L 137 53.355469 L 137 103 L 87.128906 103 Z M 87.128906 53.355469 " clip-rule="nonzero"/></clipPath><clipPath id="89c77833b2"><path d="M 180 84 L 289 84 L 289 271.605469 L 180 271.605469 Z M 180 84 " clip-rule="nonzero"/></clipPath></defs><g clip-path="url(#f6a0db5edf)"><path fill="#5ce1e6" d="M 221.179688 327.601562 C 145.800781 316.355469 85.359375 254.398438 79.074219 175.175781 C 78.761719 171.210938 78.589844 167.269531 78.550781 163.351562 C 72.289062 179.128906 68.710938 195.898438 68.019531 212.902344 C 48.863281 153.03125 65.152344 87.035156 109.761719 42.941406 C 114.5 37.054688 119.664062 31.535156 125.222656 26.425781 C 64.691406 51.664062 22.144531 111.40625 22.144531 181.078125 C 22.144531 273.578125 97.128906 348.566406 189.628906 348.566406 C 269.101562 348.566406 335.644531 293.214844 352.8125 218.960938 C 326.007812 260.078125 279.617188 287.261719 226.871094 287.261719 C 204.652344 287.261719 183.558594 282.4375 164.585938 273.78125 C 178.410156 296.421875 198.011719 314.988281 221.179688 327.601562 " fill-opacity="1" fill-rule="nonzero"/></g><g clip-path="url(#11216d6941)"><path fill="#0cc0df" d="M 102.890625 76.910156 C 99.414062 75.628906 94.328125 74.695312 87.125 73.371094 C 94.328125 74.695312 99.414062 75.628906 103.117188 75.664062 C 105.933594 75.695312 107.667969 72.601562 106.191406 70.207031 C 105.640625 69.316406 105.011719 68.335938 104.308594 67.242188 C 105.078125 68.289062 105.769531 69.226562 106.410156 70.054688 C 108.121094 72.289062 111.628906 71.765625 112.605469 69.125 C 113.886719 65.648438 114.820312 60.5625 116.144531 53.359375 C 114.820312 60.5625 113.886719 65.648438 113.847656 69.355469 C 113.820312 72.167969 116.914062 73.90625 119.308594 72.425781 C 120.199219 71.875 121.179688 71.246094 122.273438 70.542969 C 121.226562 71.3125 120.289062 72.007812 119.457031 72.644531 C 117.226562 74.359375 117.746094 77.863281 120.386719 78.835938 C 123.867188 80.121094 128.949219 81.054688 136.15625 82.378906 C 128.949219 81.054688 123.867188 80.121094 120.160156 80.085938 C 117.34375 80.054688 115.609375 83.148438 117.089844 85.542969 C 117.636719 86.433594 118.265625 87.414062 118.972656 88.507812 C 118.199219 87.460938 117.507812 86.523438 116.871094 85.695312 C 115.15625 83.460938 111.648438 83.980469 110.675781 86.625 C 109.394531 90.101562 108.460938 95.1875 107.136719 102.390625 C 108.460938 95.1875 109.394531 90.101562 109.429688 86.394531 C 109.457031 83.582031 106.367188 81.84375 103.96875 83.324219 C 103.082031 83.871094 102.097656 84.503906 101.003906 85.207031 C 102.054688 84.433594 102.988281 83.742188 103.820312 83.105469 C 106.054688 81.390625 105.53125 77.886719 102.890625 76.910156 " fill-opacity="1" fill-rule="nonzero"/></g><path fill="#0cc0df" d="M 120.214844 75.761719 C 130.875 72.234375 142.148438 69.984375 153.871094 69.199219 C 228.691406 64.1875 293.40625 120.777344 298.414062 195.59375 C 298.667969 199.347656 298.753906 203.074219 298.703125 206.765625 C 287.21875 127.183594 216.152344 68.660156 134.589844 74.125 C 129.726562 74.449219 124.933594 75.003906 120.214844 75.761719 " fill-opacity="1" fill-rule="nonzero"/><g clip-path="url(#89c77833b2)"><path fill="#0cc0df" d="M 278.296875 261.847656 C 276.898438 265.101562 275.375 268.261719 273.742188 271.335938 C 298.261719 199.714844 263.808594 120.179688 193.109375 89.765625 C 188.894531 87.953125 184.640625 86.363281 180.359375 84.972656 C 190.808594 86.59375 201.21875 89.542969 211.382812 93.910156 C 276.234375 121.808594 306.195312 196.996094 278.296875 261.847656 " fill-opacity="1" fill-rule="nonzero"/></g></svg>